<svg xmlns="http://www.w3.org/2000/svg" viewBox="18 15 70 70">
<path d="M 31 17.654297 C 23.832 17.654297 18 23.486297 18 30.654297 L 18 69.654297 C 18 76.822297 23.832 82.654297 31 82.654297 L 70 82.654297 C 77.168 82.654297 83 76.822297 83 69.654297 L 83 30.654297 C 83 23.485297 77.168 17.654297 70 17.654297 L 31 17.654297 z M 31 19.654297 L 70 19.654297 C 76.065 19.654297 81 24.589297 81 30.654297 L 81 69.654297 C 81 75.719297 76.065 80.654297 70 80.654297 L 31 80.654297 C 24.935 80.654297 20 75.719297 20 69.654297 L 20 30.654297 C 20 24.589297 24.935 19.654297 31 19.654297 z M 33.837891 22.652344 C 27.861891 22.653344 23 27.515234 23 33.490234 L 23 66.816406 C 23 72.792406 27.861891 77.652344 33.837891 77.652344 L 67.162109 77.652344 C 73.138109 77.653344 78 72.792406 78 66.816406 L 78 48.154297 C 78 47.877297 77.776 47.654297 77.5 47.654297 C 77.224 47.654297 77 47.878297 77 48.154297 L 77 66.816406 C 77 72.240406 72.586109 76.654297 67.162109 76.654297 L 33.837891 76.654297 C 28.413891 76.654297 24 72.240406 24 66.816406 L 24 33.490234 C 24 28.066234 28.413891 23.652344 33.837891 23.652344 L 67.5 23.652344 C 67.776 23.652344 68 23.428344 68 23.152344 C 68 22.876344 67.776 22.652344 67.5 22.652344 L 33.837891 22.652344 z M 52.048828 32.501953 C 51.70921 32.508958 51.363844 32.532703 51.011719 32.576172 C 48.163719 32.926172 45.618719 34.437156 44.011719 36.535156 C 43.793719 36.551156 43.574563 36.572609 43.351562 36.599609 C 38.003563 37.256609 33.435141 41.264703 32.244141 46.345703 C 31.229141 50.670703 31.877922 54.449219 34.169922 57.574219 C 40.536922 66.254219 57.601984 67.528266 63.208984 67.947266 C 63.253984 67.950266 63.29875 67.953125 63.34375 67.953125 C 63.83275 67.953125 64.300625 67.753531 64.640625 67.394531 C 65.011625 67.002531 65.184188 66.4715 65.117188 65.9375 C 64.856188 63.8595 64.161141 60.383375 62.994141 56.609375 C 64.269141 56.773375 65.406547 56.879266 66.310547 56.947266 C 66.347547 56.948266 66.384875 56.951172 66.421875 56.951172 C 66.829875 56.951172 67.219906 56.785328 67.503906 56.486328 C 67.813906 56.160328 67.957391 55.715531 67.900391 55.269531 C 67.130234 49.139281 62.577 32.284788 52.048828 32.501953 z M 52.095703 33.498047 C 61.891891 33.31199 66.167094 49.512281 66.90625 55.394531 C 66.92525 55.542531 66.878391 55.688875 66.775391 55.796875 C 66.673391 55.902875 66.536859 55.958266 66.380859 55.947266 C 63.132859 55.706266 56.905359 54.969047 51.693359 52.748047 C 51.436359 52.641047 51.145109 52.757719 51.037109 53.011719 C 50.929109 53.265719 51.046781 53.559969 51.300781 53.667969 C 54.780781 55.150969 58.682437 55.985031 61.898438 56.457031 C 63.134438 60.342031 63.859 63.9455 64.125 66.0625 C 64.155 66.2985 64.078062 66.532078 63.914062 66.705078 C 63.751063 66.877078 63.519203 66.968219 63.283203 66.949219 C 48.545203 65.848219 39.020562 62.494469 34.976562 56.980469 C 32.865563 54.102469 32.272797 50.601219 33.216797 46.574219 C 34.301797 41.949219 38.431969 38.293141 43.292969 37.619141 C 42.839969 38.425141 42.514516 39.292266 42.353516 40.197266 C 42.304516 40.468266 42.485813 40.729344 42.757812 40.777344 C 43.024813 40.819344 43.289891 40.643094 43.337891 40.371094 C 43.951891 36.909094 47.229859 34.048359 51.130859 33.568359 C 51.458422 33.527359 51.779697 33.504049 52.095703 33.498047 z M 77.5 37.654297 C 77.224 37.654297 77 37.877297 77 38.154297 L 77 40.154297 C 77 40.430297 77.224 40.654297 77.5 40.654297 C 77.776 40.654297 78 40.430297 78 40.154297 L 78 38.154297 C 78 37.878297 77.776 37.654297 77.5 37.654297 z M 77.5 41.654297 C 77.224 41.654297 77 41.878297 77 42.154297 L 77 46.154297 C 77 46.430297 77.224 46.654297 77.5 46.654297 C 77.776 46.654297 78 46.430297 78 46.154297 L 78 42.154297 C 78 41.877297 77.776 41.654297 77.5 41.654297 z M 42.644531 42.751953 C 42.369531 42.772953 42.1655 43.014062 42.1875 43.289062 C 42.4985 47.171062 44.878672 50.335406 49.263672 52.691406 C 49.338672 52.731406 49.418047 52.751953 49.498047 52.751953 C 49.676047 52.751953 49.850453 52.656281 49.939453 52.488281 C 50.071453 52.245281 49.979328 51.9425 49.736328 51.8125 C 45.671328 49.6265 43.465594 46.733937 43.183594 43.210938 C 43.162594 42.935938 42.913531 42.735953 42.644531 42.751953 z"></path>
</svg>